<?xml version="1.0" encoding="UTF-8" standalone="no"?>
<svg
   width="188"
   height="32"
   viewBox="0 0 188 32"
   fill="none"
   version="1.1"
   id="svg14"
   sodipodi:docname="dark-logo.svg"
   inkscape:version="1.3.2 (091e20e, 2023-11-25, custom)"
   xmlns:inkscape="http://www.inkscape.org/namespaces/inkscape"
   xmlns:sodipodi="http://sodipodi.sourceforge.net/DTD/sodipodi-0.dtd"
   xmlns="http://www.w3.org/2000/svg"
   xmlns:svg="http://www.w3.org/2000/svg">
  <sodipodi:namedview
     id="namedview14"
     pagecolor="#ffffff"
     bordercolor="#000000"
     borderopacity="0.25"
     inkscape:showpageshadow="2"
     inkscape:pageopacity="0.0"
     inkscape:pagecheckerboard="0"
     inkscape:deskcolor="#d1d1d1"
     inkscape:zoom="5.0588225"
     inkscape:cx="108.22677"
     inkscape:cy="29.552332"
     inkscape:window-width="1920"
     inkscape:window-height="991"
     inkscape:window-x="-9"
     inkscape:window-y="-9"
     inkscape:window-maximized="1"
     inkscape:current-layer="g14" />
  <g
     clip-path="url(#clip0_688_134974)"
     id="g14">
    <path
       d="M 11.8858,0.29867 C 9.40001,1.19467 7.37379,3.66934 6.99779,6.22934 6.91423,6.784 6.74712,7.31734 6.6009,7.424 6.47557,7.53067 5.8489,7.72267 5.20135,7.872 c -4.05245,0.87467 -6.392,5.696 -4.59556,9.5147 0.62667,1.3866 2.19333,3.0293 3.27956,3.4986 0.564,0.2347 0.66844,0.4054 0.77288,1.216 0.20889,1.9627 1.75467,3.392 3.92712,3.648 1.10711,0.128 1.50395,0.512 1.316,1.2587 C 9.65068,28.0533 9.29557,32 9.46268,32 c 0.08355,0 1.08622,-0.896 2.19332,-1.984 2.7156,-2.688 3.8018,-3.6693 4.4285,-3.9893 0.3968,-0.2347 2.0888,-0.2987 7.3111,-0.2987 l 6.8097,-0.0213 1.0236,-0.5547 C 31.96,24.768 32.4613,24.32 32.9,23.5733 l 0.6267,-1.024 0.0626,-5.0346 C 33.6729,11.776 33.5267,10.624 32.5449,9.472 31.3125,8.04267 30.6858,7.872 26.4453,7.76534 24.3773,7.72267 22.4556,7.63733 22.2049,7.57334 21.8707,7.488 21.7036,7.25334 21.62,6.656 21.1396,3.66934 19.2596,1.216 16.732,0.320004 15.604,-0.0639954 12.9302,-0.085331 11.8858,0.29867 Z M 31.02,10.2613 c 0.7938,0.8107 0.94,1.7494 0.9191,6.5067 0,4.9493 -0.1253,5.7387 -1.0235,6.528 l -0.6267,0.5973 h -6.8933 c -5.64,0 -7.0396,0.064 -7.6454,0.32 -0.4177,0.1707 -1.504,0.96 -2.4022,1.728 l -1.6711,1.4294 0.0418,-1.408 c 0.0626,-1.8134 -0.1462,-2.0694 -1.6711,-2.0694 -1.7547,0 -2.6947,-0.3413 -3.15426,-1.1306 -0.22977,-0.384 -0.41777,-0.7894 -0.41777,-0.9387 0,-0.192 2.10978,-0.2773 8.52263,-0.32 8.3556,-0.064 8.5227,-0.064 9.5463,-0.5547 3.0288,-1.4293 4.7626,-5.2693 3.76,-8.3413 -0.188,-0.6187 -0.6894,-1.536 -1.0863,-2.0693 L 26.508,9.55733 28.4925,9.64267 c 1.8173,0.064 2.0471,0.10667 2.5275,0.61863 z m -9.6089,1.1307 c 0.376,0.1707 0.7938,0.4907 0.9191,0.7253 0.3969,0.768 0.2716,1.8987 -0.2715,2.5387 -0.5014,0.5973 -0.5431,0.5973 -3.5094,0.704 l -2.9871,0.1067 -1.4204,0.9173 -1.3996,0.896 v -0.96 -0.96 h -2.6111 c -2.86176,0 -3.5302,-0.192 -3.98975,-1.088 -0.56401,-1.1307 -0.18801,-2.4107 0.85644,-2.88 0.94,-0.4267 13.41071,-0.4267 14.41331,0 z"
       fill="#6338f6"
       id="path1"
       style="display:inline;fill:#ffffff" />
    <path
       d="m 10.6533,12.779 c -0.3342,0.6613 0.0836,1.344 0.7729,1.2587 0.7103,-0.0854 1.0863,-0.6827 0.7729,-1.1947 -0.3342,-0.5547 -1.2533,-0.5973 -1.5458,-0.064 z"
       fill="#6338f6"
       id="path2"
       style="display:inline;fill:#ffffff" />
    <path
       d="m 13.4107,12.6294 c -0.564,0.576 -0.1253,1.4507 0.7311,1.4507 0.6058,0 1.0027,-0.704 0.6894,-1.28 -0.2507,-0.4694 -1.0236,-0.576 -1.4205,-0.1707 z"
       fill="#6338f6"
       id="path3"
       style="display:inline;fill:#ffffff" />
    <path
       d="m 16.1263,12.6294 c -0.564,0.576 -0.1253,1.4507 0.7311,1.4507 0.6058,0 1.0027,-0.704 0.6893,-1.28 -0.2506,-0.4694 -1.0235,-0.576 -1.4204,-0.1707 z"
       fill="#6338f6"
       id="path4"
       style="display:inline;fill:#ffffff" />
    <path
       d="m 150.504,5.1626 c -0.062,0.14933 -0.083,4.45866 -0.062,9.5573 l 0.062,9.28 1.504,0.064 1.504,0.064 0.063,-4.3733 c 0.063,-4.7573 0.104,-4.928 1.441,-5.9307 0.627,-0.4906 2.131,-0.576 3.029,-0.2133 1.274,0.5547 1.442,1.152 1.504,6.08 l 0.084,4.4373 1.483,-0.064 1.504,-0.064 0.063,-3.84 c 0.083,-5.7813 -0.356,-7.5306 -2.236,-8.9386 -1.65,-1.25871 -4.449,-1.1947 -6.329,0.128 l -0.585,0.4053 V 9.59993 c 0,-2.45333 -0.25,-3.264 -1.232,-4.11733 -0.71,-0.59734 -1.63,-0.768 -1.797,-0.32 z"
       fill="#6338f6"
       id="path5"
       style="display:none" />
    <path
       d="m 42.0285,6.44311 c -0.1671,0.17067 -0.2507,1.152 -0.2507,2.96534 0,3.02935 -0.0418,2.96535 1.5667,2.96535 1.4622,0 1.5666,-0.1067 1.5666,-1.4934 0,-0.7253 0.1045,-1.30129 0.2716,-1.42929 0.4387,-0.32 5.5773,0.02134 6.3293,0.42667 1.88,1.00262 2.8618,2.83732 2.8827,5.31202 0,1.408 -0.1044,1.8133 -0.6267,2.88 -1.1071,2.2186 -2.9035,3.0506 -6.6426,3.0506 -2.2769,0 -2.2143,0.064 -2.2143,-2.1546 v -1.472 h -1.5666 -1.5667 v 3.0506 c 0,2.0907 0.0836,3.136 0.2507,3.3067 0.3969,0.4053 7.4155,0.3413 9.1284,-0.064 4.0734,-0.9813 6.4756,-4.2027 6.4965,-8.64 0,-4.5013 -2.7365,-7.93599 -6.9769,-8.72532 -1.7547,-0.32 -8.3138,-0.32 -8.648,0.02133 z"
       fill="#6338f6"
       id="path6"
       style="display:none;image-rendering:auto" />
    <path
       d="m 181.044,7.61647 c -0.083,0.064 -0.146,0.74667 -0.146,1.49334 0,1.25869 -0.021,1.34399 -0.481,1.34399 -0.856,0 -1.42,0.768 -1.357,1.7707 0.062,0.896 0.062,0.896 0.961,0.96 l 0.877,0.064 v 3.2853 c 0,1.8133 0.104,3.776 0.23,4.3733 0.271,1.2587 1.19,2.4747 2.214,2.9014 0.961,0.4266 2.945,0.384 3.823,-0.0854 0.877,-0.448 1.023,-1.024 0.417,-1.8133 -0.397,-0.4907 -0.605,-0.576 -1.566,-0.576 -0.961,0 -1.17,-0.0853 -1.546,-0.5547 -0.397,-0.5333 -0.439,-0.8533 -0.439,-4.0533 v -3.4987 h 1.149 c 0.961,0 1.253,-0.0853 1.671,-0.5333 0.502,-0.4907 0.648,-1.216 0.397,-1.8987 -0.104,-0.2773 -0.459,-0.3413 -1.671,-0.3413 h -1.546 V 9.62181 c 0,-1.28001 -0.814,-2.15467 -1.963,-2.15467 -0.502,0 -0.961,0.064 -1.024,0.14933 z"
       fill="#6338f6"
       id="path7"
       style="display:none" />
    <path
       d="m 140.582,10.3041 c -2.047,0.5973 -3.948,2.3893 -4.491,4.2666 -0.418,1.4294 -0.397,3.6694 0.042,5.056 0.459,1.4507 1.838,3.008 3.363,3.776 1.462,0.7254 3.739,0.832 5.306,0.2134 1.002,-0.4054 2.674,-2.0054 2.674,-2.5814 0,-0.1706 -0.418,-0.6186 -0.94,-0.9813 l -0.94,-0.6613 -0.878,0.7466 c -1.713,1.5147 -3.906,1.2587 -5.264,-0.5973 -0.376,-0.4907 -0.438,-0.896 -0.438,-2.4747 0,-1.5786 0.062,-1.984 0.438,-2.4746 1.4,-1.9414 4.011,-2.112 5.431,-0.3627 0.523,0.6613 1.087,0.5333 1.609,-0.3413 1.065,-1.8347 -0.606,-3.5414 -3.698,-3.7547 -0.71,-0.064 -1.692,0.0213 -2.214,0.1707 z"
       fill="#6338f6"
       id="path8"
       style="display:none" />
    <path
       d="m 73.3826,10.5813 c -1.1906,0.448 -2.5693,1.728 -3.3004,3.0934 -0.7938,1.4933 -0.9818,4.2026 -0.4178,5.9306 0.5222,1.6214 1.7338,3.072 3.1751,3.776 1.0654,0.5547 1.4413,0.6187 3.196,0.6187 1.9218,0 2.068,-0.0427 3.6556,-0.8533 1.9218,-0.9814 2.1306,-1.3867 1.1071,-2.0267 -0.752,-0.4907 -1.8382,-0.4907 -3.4467,0 -1.7547,0.5333 -3.6764,-0.192 -4.5329,-1.7067 -0.3342,-0.576 -0.4386,-1.1093 -0.4386,-2.3466 0,-1.2374 0.1044,-1.7707 0.4386,-2.3467 1.2743,-2.24 4.4494,-2.304 5.6609,-0.1067 C 79.2106,15.936 79.1688,16 77.3724,16 h -1.5667 l -0.4386,0.9813 c -0.2507,0.5974 -0.3343,1.0667 -0.2298,1.1734 0.1044,0.1066 1.6502,0.1706 3.4258,0.1493 L 81.78,18.24 81.7591,16.5333 c 0,-1.408 -0.1045,-1.8986 -0.5431,-2.7733 -0.6894,-1.3227 -1.8592,-2.5173 -3.0916,-3.072 -1.128,-0.5333 -3.4258,-0.576 -4.7418,-0.1067 z"
       fill="#6338f6"
       id="path9"
       style="display:none" />
    <path
       d="m 87.7751,10.5813 c -1.2951,0.3414 -2.1516,0.768 -2.5485,1.2587 -0.2297,0.2987 -0.2088,0.4907 0.1672,1.3013 0.5013,1.0454 0.8355,1.152 1.9426,0.576 0.8982,-0.4693 3.4467,-0.6186 4.1569,-0.2346 0.8982,0.4906 1.2533,1.536 1.2533,3.712 0,1.8133 -0.0417,2.0053 -0.6266,2.8373 -0.3551,0.4907 -0.94,1.088 -1.316,1.3227 -1.4414,0.9173 -3.4676,-0.1067 -3.196,-1.6 0.1462,-0.7254 0.7938,-1.408 1.3786,-1.408 0.2716,0 0.3969,-0.2347 0.4805,-1.0027 0.0627,-0.576 0.0627,-1.088 0,-1.1733 -0.2089,-0.384 -1.7338,-0.1494 -2.7991,0.4266 -1.4414,0.768 -2.068,1.8134 -2.068,3.4134 0,2.1546 1.2324,3.6266 3.4466,4.096 1.5667,0.3413 2.5903,0.0213 3.8018,-1.1734 0.5431,-0.5333 1.0027,-0.96 1.0236,-0.96 0.0418,0 0.0835,0.448 0.1253,1.0027 L 93.06,24 l 1.1071,0.064 c 1.7964,0.1067 1.7547,0.2347 1.6711,-5.184 -0.0627,-4.1813 -0.1253,-4.8 -0.5013,-5.6533 -1.1071,-2.496 -4.1987,-3.58402 -7.5618,-2.6454 z"
       fill="#6338f6"
       id="path10"
       style="display:none" />
    <path
       d="m 125.856,10.6242 c -1.818,0.64 -2.632,1.472 -3.029,3.072 -0.439,1.792 0.438,3.6267 2.068,4.288 0.438,0.192 1.545,0.4694 2.465,0.6614 2.297,0.448 2.778,0.6826 2.778,1.4293 0,0.4053 -0.167,0.7253 -0.522,0.96 -0.773,0.512 -3.656,0.32 -4.868,-0.32 -0.501,-0.256 -1.044,-0.4267 -1.19,-0.3627 -0.272,0.1067 -1.149,1.8774 -1.149,2.304 0,0.3627 2.298,1.2374 3.781,1.4507 1.483,0.2133 3.238,0.064 4.407,-0.4053 1.003,-0.384 2.235,-1.7067 2.486,-2.6454 0.689,-2.6453 -0.856,-4.4373 -4.407,-5.056 -2.131,-0.3626 -2.695,-0.6186 -2.841,-1.1946 -0.188,-0.768 0.041,-1.1307 0.898,-1.5147 0.919,-0.384 2.548,-0.256 3.99,0.2987 1.086,0.4266 1.399,0.2133 1.399,-1.0027 0,-0.576 -0.167,-0.9813 -0.501,-1.3653 -0.898,-0.9814 -3.844,-1.28002 -5.765,-0.5974 z"
       fill="#6338f6"
       id="path11"
       style="display:none" />
    <path
       d="m 168.824,10.5813 c -1.295,0.3414 -2.152,0.768 -2.548,1.2587 -0.23,0.2987 -0.209,0.4907 0.167,1.3013 0.501,1.0454 0.835,1.152 1.942,0.576 0.899,-0.4693 3.447,-0.6186 4.157,-0.2346 0.898,0.4906 1.254,1.536 1.254,3.712 0,1.8133 -0.042,2.0053 -0.627,2.8373 -0.355,0.4907 -0.94,1.088 -1.316,1.3227 -1.441,0.9173 -3.468,-0.1067 -3.196,-1.6 0.146,-0.7254 0.794,-1.408 1.379,-1.408 0.229,0 0.48,-0.32 0.71,-0.9174 0.543,-1.472 0.522,-1.4933 -1.024,-1.3866 -2.569,0.2133 -4.073,1.6853 -4.073,4.0106 0,2.112 1.253,3.584 3.488,4.0534 1.483,0.3413 2.486,0.0213 3.739,-1.1734 0.544,-0.5333 1.024,-0.96 1.045,-0.96 0.042,0 0.083,0.448 0.125,1.0027 l 0.063,1.024 1.107,0.064 c 1.796,0.1067 1.755,0.2347 1.671,-5.1627 -0.063,-4.224 -0.104,-4.8213 -0.501,-5.6746 -1.128,-2.496 -4.22,-3.58402 -7.562,-2.6454 z"
       fill="#6338f6"
       id="path12"
       style="display:none" />
    <path
       d="m 60.7866,17.2799 v 6.848 l 1.5249,-0.064 1.504,-0.064 0.1045,-4.16 c 0.0835,-3.4773 0.1671,-4.2666 0.4804,-4.864 0.4387,-0.8106 1.7547,-1.5146 2.82,-1.536 0.6476,0 0.6684,-0.0426 0.6684,-0.8533 0,-1.088 -0.7728,-1.92 -1.7546,-1.92 -0.7102,0 -2.2142,0.9173 -2.2142,1.344 0,0.1493 -0.188,-0.0427 -0.4178,-0.4267 -0.4805,-0.832 -1.0027,-1.1306 -1.9636,-1.1306 h -0.752 z"
       fill="#6338f6"
       id="path13"
       inkscape:label="path13"
       style="display:none;mix-blend-mode:normal" />
    <path
       d="m 103.504,10.8586 c -0.459,0.2133 -1.023,0.5973 -1.232,0.8533 l -0.397,0.448 -0.689,-0.7466 c -0.522,-0.5974 -0.815,-0.7467 -1.4207,-0.7467 h -0.752 v 6.72 6.72 h 1.4417 1.441 l 0.084,-4.224 c 0.083,-4.672 0.229,-5.248 1.483,-6.016 0.814,-0.512 2.381,-0.5547 3.029,-0.0853 0.981,0.704 1.107,1.3013 1.148,5.9093 l 0.042,4.3093 1.525,0.064 1.504,0.064 v -3.7973 c 0,-4.16 0.167,-5.0987 1.024,-6.08 0.48,-0.5547 0.752,-0.6827 1.713,-0.7467 1.378,-0.1066 2.047,0.2134 2.527,1.216 0.313,0.64 0.376,1.3867 0.376,5.056 v 4.3307 h 1.588 1.587 l -0.083,-4.9707 c -0.063,-4.6933 -0.105,-4.992 -0.564,-5.9733 -0.564,-1.1733 -1.692,-2.1973 -2.737,-2.496 -1.17,-0.3413 -3.154,-0.256 -4.073,0.192 -0.46,0.2133 -1.128,0.6827 -1.483,1.0453 l -0.648,0.6614 -0.606,-0.6614 c -0.334,-0.3626 -0.981,-0.832 -1.441,-1.0453 -1.107,-0.5333 -3.259,-0.5333 -4.387,0 z"
       fill="#6338f6"
       id="path14"
       inkscape:label="path14"
       style="display:none" />
    <text
       xml:space="preserve"
       style="font-size:26.6667px;letter-spacing:2px;fill:#ffffff;fill-opacity:1"
       x="39.32608"
       y="24.313959"
       id="text14"><tspan
         sodipodi:role="line"
         id="tspan14"
         x="39.32608"
         y="24.313959"
         style="font-style:normal;font-variant:normal;font-weight:normal;font-stretch:normal;font-family:'OCR A Extended';-inkscape-font-specification:'OCR A Extended';letter-spacing:2px;fill:#ffffff;fill-opacity:1">Kallaris</tspan></text>
  </g>
  <defs
     id="defs14">
    <clipPath
       id="clip0_688_134974">
      <rect
         width="188"
         height="32"
         fill="white"
         id="rect14" />
    </clipPath>
  </defs>
</svg>
